<svg width="19" height="19" viewBox="0 0 19 19" fill="none" xmlns="http://www.w3.org/2000/svg">
<path d="M17.293 2.26367C13.5911 2.26367 9.8066 0.168514 9.76852 0.147844L9.5 0L9.23148 0.147844C9.1934 0.168514 5.40891 2.26367 1.70703 2.26367H1.15039V2.82031C1.15039 16.4439 9.0135 18.8625 9.34833 18.9571L9.5 19L9.65167 18.9571C9.9865 18.8625 17.8496 16.4439 17.8496 2.82031V2.26367H17.293Z" fill="#F9F5F3"/>
<path d="M10.5 17.4877V1.61607C10.8699 1.78103 11.3119 1.96598 11.8079 2.15065C13.1646 2.65584 14.9802 3.18015 16.8468 3.25466C16.7655 9.592 14.9088 13.2411 13.1201 15.3076C12.1982 16.3726 11.2742 17.0411 10.5738 17.4456C10.5489 17.46 10.5243 17.474 10.5 17.4877Z" fill="url(#paint0_radial)" stroke="#E8E8E8" stroke-width="2"/>
<path d="M9.50005 1.2644C8.58572 1.72972 5.51388 3.2079 2.26807 3.36338C2.45291 14.7626 8.42919 17.4524 9.50005 17.8356C10.5709 17.4524 16.5472 14.7625 16.732 3.36338C13.4862 3.2079 10.4144 1.72972 9.50005 1.2644Z" fill="#4131FF"/>
<path d="M16.732 3.36338C13.4862 3.2079 10.4143 1.72972 9.5 1.2644V17.8356C10.5709 17.4524 16.5471 14.7626 16.732 3.36338Z" fill="#1400FF"/>
<defs>
<radialGradient id="paint0_radial" cx="0" cy="0" r="1" gradientUnits="userSpaceOnUse" gradientTransform="translate(27.2951 -15.3966) rotate(111.095) scale(35.8138 26.5535)">
<stop stop-color="#1400FF"/>
<stop offset="1" stop-color="#F2F2F2"/>
</radialGradient>
</defs>
</svg>
